<svg width="22" height="22" viewBox="0 0 22 22" fill="none" xmlns="http://www.w3.org/2000/svg">
<path d="M11 20.1663C16.0626 20.1663 20.1667 16.0623 20.1667 10.9997C20.1667 5.93706 16.0626 1.83301 11 1.83301C5.9374 1.83301 1.83334 5.93706 1.83334 10.9997C1.83334 16.0623 5.9374 20.1663 11 20.1663Z" stroke="#798BB4" stroke-width="2" stroke-linecap="round" stroke-linejoin="round"/>
<path d="M8.33249 8.24955C8.548 7.63691 8.97338 7.12031 9.53328 6.79125C10.0932 6.46219 10.7515 6.34191 11.3916 6.4517C12.0317 6.56149 12.6122 6.89428 13.0305 7.39111C13.4487 7.88795 13.6776 8.51677 13.6767 9.16621C13.6767 10.9995 10.9267 11.9162 10.9267 11.9162" stroke="#798BB4" stroke-width="2" stroke-linecap="round" stroke-linejoin="round"/>
<path d="M11 15.583H11.01" stroke="#798BB4" stroke-width="2" stroke-linecap="round" stroke-linejoin="round"/>
</svg>
