<svg width="40" height="40" viewBox="0 0 40 40" fill="none" xmlns="http://www.w3.org/2000/svg">
<path fill-rule="evenodd" clip-rule="evenodd" d="M20.2983 27.9988C17.8684 25.9506 16.3277 22.9029 16.3277 19.4997C16.3277 16.0964 17.8684 13.0487 20.2983 11.0006C18.3249 9.33717 15.7651 8.33301 12.9679 8.33301C6.72641 8.33301 1.66671 13.3325 1.66671 19.4997C1.66671 25.6669 6.72641 30.6663 12.9679 30.6663C15.7651 30.6663 18.3249 29.6622 20.2983 27.9988Z" fill="white"/>
<path opacity="0.7" fill-rule="evenodd" clip-rule="evenodd" d="M20.2983 27.9991C22.7281 25.9509 24.2689 22.9032 24.2689 19.5C24.2689 16.0968 22.7281 13.0491 20.2983 11.0009C17.8684 13.0491 16.3276 16.0968 16.3276 19.5C16.3276 22.9032 17.8684 25.9509 20.2983 27.9991Z" fill="white"/>
<path opacity="0.3" fill-rule="evenodd" clip-rule="evenodd" d="M20.2983 27.9988C22.7282 25.9506 24.269 22.9029 24.269 19.4997C24.269 16.0964 22.7282 13.0487 20.2983 11.0006C22.2718 9.33717 24.8316 8.33301 27.6288 8.33301C33.8703 8.33301 38.93 13.3325 38.93 19.4997C38.93 25.6669 33.8703 30.6663 27.6288 30.6663C24.8316 30.6663 22.2718 29.6622 20.2983 27.9988Z" fill="white"/>
</svg>
