<svg width="22" height="22" viewBox="0 0 22 22" fill="none" xmlns="http://www.w3.org/2000/svg">
<g clip-path="url(#clip0_155_5926)">
<path d="M11 13.75C12.5188 13.75 13.75 12.5188 13.75 11C13.75 9.48122 12.5188 8.25 11 8.25C9.48122 8.25 8.25 9.48122 8.25 11C8.25 12.5188 9.48122 13.75 11 13.75Z" stroke="#798BB4" stroke-width="2" stroke-linecap="round" stroke-linejoin="round"/>
<path d="M17.7833 13.7503C17.6613 14.0268 17.6249 14.3335 17.6788 14.6309C17.7327 14.9282 17.8745 15.2026 18.0858 15.4187L18.1408 15.4737C18.3113 15.6439 18.4465 15.8461 18.5388 16.0687C18.631 16.2912 18.6785 16.5298 18.6785 16.7707C18.6785 17.0117 18.631 17.2502 18.5388 17.4728C18.4465 17.6954 18.3113 17.8976 18.1408 18.0678C17.9706 18.2383 17.7684 18.3735 17.5458 18.4658C17.3232 18.558 17.0847 18.6055 16.8437 18.6055C16.6028 18.6055 16.3642 18.558 16.1417 18.4658C15.9191 18.3735 15.7169 18.2383 15.5467 18.0678L15.4917 18.0128C15.2756 17.8015 15.0012 17.6597 14.7039 17.6058C14.4065 17.5519 14.0998 17.5883 13.8233 17.7103C13.5522 17.8265 13.321 18.0195 13.1581 18.2654C12.9952 18.5113 12.9078 18.7995 12.9067 19.0945V19.2503C12.9067 19.7366 12.7135 20.2029 12.3697 20.5467C12.0259 20.8905 11.5596 21.0837 11.0733 21.0837C10.5871 21.0837 10.1208 20.8905 9.77696 20.5467C9.43315 20.2029 9.23999 19.7366 9.23999 19.2503V19.1678C9.23289 18.8644 9.13468 18.5702 8.95813 18.3233C8.78157 18.0764 8.53483 17.8884 8.24999 17.7837C7.97351 17.6616 7.66681 17.6252 7.36945 17.6792C7.07209 17.7331 6.7977 17.8748 6.58166 18.0862L6.52666 18.1412C6.35639 18.3116 6.15419 18.4468 5.93163 18.5391C5.70907 18.6314 5.4705 18.6789 5.22957 18.6789C4.98865 18.6789 4.75008 18.6314 4.52752 18.5391C4.30495 18.4468 4.10276 18.3116 3.93249 18.1412C3.76203 17.9709 3.62681 17.7687 3.53455 17.5461C3.44229 17.3236 3.3948 17.085 3.3948 16.8441C3.3948 16.6031 3.44229 16.3646 3.53455 16.142C3.62681 15.9195 3.76203 15.7173 3.93249 15.547L3.98749 15.492C4.19882 15.276 4.34058 15.0016 4.39449 14.7042C4.44841 14.4068 4.41201 14.1001 4.28999 13.8237C4.17379 13.5525 3.98085 13.3213 3.73492 13.1584C3.48898 12.9956 3.20079 12.9082 2.90582 12.907H2.74999C2.26376 12.907 1.79744 12.7138 1.45363 12.37C1.10981 12.0262 0.916656 11.5599 0.916656 11.0737C0.916656 10.5874 1.10981 10.1211 1.45363 9.7773C1.79744 9.43348 2.26376 9.24033 2.74999 9.24033H2.83249C3.1359 9.23323 3.43016 9.13502 3.67701 8.95846C3.92387 8.7819 4.1119 8.53517 4.21666 8.25033C4.33868 7.97384 4.37508 7.66715 4.32116 7.36979C4.26724 7.07242 4.12548 6.79803 3.91416 6.58199L3.85916 6.52699C3.6887 6.35673 3.55348 6.15453 3.46121 5.93197C3.36895 5.7094 3.32146 5.47084 3.32146 5.22991C3.32146 4.98898 3.36895 4.75042 3.46121 4.52785C3.55348 4.30529 3.6887 4.10309 3.85916 3.93283C4.02942 3.76237 4.23162 3.62714 4.45418 3.53488C4.67675 3.44262 4.91531 3.39513 5.15624 3.39513C5.39717 3.39513 5.63573 3.44262 5.8583 3.53488C6.08086 3.62714 6.28306 3.76237 6.45332 3.93283L6.50832 3.98783C6.72436 4.19915 6.99875 4.34091 7.29612 4.39483C7.59348 4.44875 7.90018 4.41235 8.17666 4.29033H8.24999C8.52111 4.17413 8.75234 3.98118 8.91521 3.73525C9.07808 3.48932 9.16548 3.20113 9.16666 2.90616V2.75033C9.16666 2.2641 9.35981 1.79778 9.70363 1.45396C10.0474 1.11015 10.5138 0.916992 11 0.916992C11.4862 0.916992 11.9525 1.11015 12.2964 1.45396C12.6402 1.79778 12.8333 2.2641 12.8333 2.75033V2.83283C12.8345 3.1278 12.9219 3.41599 13.0848 3.66192C13.2476 3.90785 13.4789 4.10079 13.75 4.21699C14.0265 4.33901 14.3332 4.37541 14.6305 4.3215C14.9279 4.26758 15.2023 4.12582 15.4183 3.91449L15.4733 3.85949C15.6436 3.68904 15.8458 3.55381 16.0684 3.46155C16.2909 3.36929 16.5295 3.3218 16.7704 3.3218C17.0113 3.3218 17.2499 3.36929 17.4725 3.46155C17.695 3.55381 17.8972 3.68904 18.0675 3.85949C18.2379 4.02976 18.3732 4.23196 18.4654 4.45452C18.5577 4.67708 18.6052 4.91565 18.6052 5.15658C18.6052 5.3975 18.5577 5.63607 18.4654 5.85863C18.3732 6.0812 18.2379 6.28339 18.0675 6.45366L18.0125 6.50866C17.8012 6.7247 17.6594 6.99909 17.6055 7.29645C17.5516 7.59382 17.588 7.90051 17.71 8.17699V8.25033C17.8262 8.52145 18.0191 8.75268 18.2651 8.91554C18.511 9.07841 18.7992 9.16582 19.0942 9.16699H19.25C19.7362 9.16699 20.2025 9.36015 20.5464 9.70396C20.8902 10.0478 21.0833 10.5141 21.0833 11.0003C21.0833 11.4866 20.8902 11.9529 20.5464 12.2967C20.2025 12.6405 19.7362 12.8337 19.25 12.8337H19.1675C18.8725 12.8348 18.5843 12.9222 18.3384 13.0851C18.0925 13.248 17.8995 13.4792 17.7833 13.7503V13.7503Z" stroke="#798BB4" stroke-width="2" stroke-linecap="round" stroke-linejoin="round"/>
</g>
<defs>
<clipPath id="clip0_155_5926">
<rect width="22" height="22" fill="white"/>
</clipPath>
</defs>
</svg>
