<svg xmlns="http://www.w3.org/2000/svg" viewBox="0 0 44 44"><defs><style>.cls-1{fill:#6d6d6d;}.cls-2{fill:none;stroke:#d4d4d4;stroke-miterlimit:10;}</style></defs><g id="Layer_2" data-name="Layer 2"><g id="Layer_1-2" data-name="Layer 1"><path class="cls-1" d="M23.93,10.6h-10a2.5,2.5,0,0,0-1.77.74,2.47,2.47,0,0,0-.73,1.76v20a2.49,2.49,0,0,0,2.5,2.5h15a2.51,2.51,0,0,0,2.5-2.5v-15ZM18.3,28.34a2.34,2.34,0,0,1-1.62.53,2.56,2.56,0,0,1-.39,0v1.79H15.18V25.71a9.63,9.63,0,0,1,1.52-.11,2.42,2.42,0,0,1,1.52.4,1.46,1.46,0,0,1,.54,1.16A1.6,1.6,0,0,1,18.3,28.34ZM23.06,30a3.58,3.58,0,0,1-2.3.65,9,9,0,0,1-1.28-.08V25.71A9.63,9.63,0,0,1,21,25.6a3.15,3.15,0,0,1,2,.54A2.2,2.2,0,0,1,23.89,28,2.51,2.51,0,0,1,23.06,30Zm4.62-3.46H25.76V27.7h1.79v.92H25.76v2H24.63v-5h3.05Zm-3.75-7.22H22.68V13.1l6.25,6.25Z"/><rect class="cls-2" x="0.5" y="0.5" width="43" height="43" rx="8.5"/></g></g></svg>