<svg width="35" height="35" viewBox="0 0 35 35" fill="none" xmlns="http://www.w3.org/2000/svg">
<rect x="0.5" y="0.5" width="34" height="34" rx="17" fill="white"/>
<path d="M22.5 15C22.5 13.8065 22.0259 12.6619 21.182 11.818C20.3381 10.9741 19.1935 10.5 18 10.5C16.8065 10.5 15.6619 10.9741 14.818 11.818C13.9741 12.6619 13.5 13.8065 13.5 15C13.5 20.25 11.25 21.75 11.25 21.75H24.75C24.75 21.75 22.5 20.25 22.5 15Z" stroke="#333333" stroke-width="2" stroke-linecap="round" stroke-linejoin="round"/>
<path d="M19.2975 24.75C19.1657 24.9773 18.9764 25.166 18.7487 25.2971C18.521 25.4283 18.2628 25.4973 18 25.4973C17.7372 25.4973 17.4791 25.4283 17.2513 25.2971C17.0236 25.166 16.8344 24.9773 16.7025 24.75" stroke="#333333" stroke-width="2" stroke-linecap="round" stroke-linejoin="round"/>
<rect x="0.5" y="0.5" width="34" height="34" rx="17" stroke="#E3E3E3"/>
</svg>
