<svg width="21" height="20" viewBox="0 0 21 20" fill="none" xmlns="http://www.w3.org/2000/svg">
<path d="M9.6665 3.33398H3.83317C3.39114 3.33398 2.96722 3.50958 2.65466 3.82214C2.3421 4.1347 2.1665 4.55862 2.1665 5.00065V16.6673C2.1665 17.1093 2.3421 17.5333 2.65466 17.8458C2.96722 18.1584 3.39114 18.334 3.83317 18.334H15.4998C15.9419 18.334 16.3658 18.1584 16.6783 17.8458C16.9909 17.5333 17.1665 17.1093 17.1665 16.6673V10.834" stroke="#3FA2F7" stroke-width="2" stroke-linecap="round" stroke-linejoin="round"/>
<path d="M15.9165 2.08417C16.248 1.75265 16.6977 1.56641 17.1665 1.56641C17.6353 1.56641 18.085 1.75265 18.4165 2.08417C18.748 2.41569 18.9343 2.86533 18.9343 3.33417C18.9343 3.80301 18.748 4.25265 18.4165 4.58417L10.4998 12.5008L7.1665 13.3342L7.99984 10.0008L15.9165 2.08417Z" stroke="#3FA2F7" stroke-width="2" stroke-linecap="round" stroke-linejoin="round"/>
</svg>
