<svg width="20" height="21" viewBox="0 0 20 21" fill="none" xmlns="http://www.w3.org/2000/svg">
<path d="M11.6667 2.16699H5C4.55797 2.16699 4.13405 2.34259 3.82149 2.65515C3.50893 2.96771 3.33334 3.39163 3.33334 3.83366V17.167C3.33334 17.609 3.50893 18.0329 3.82149 18.3455C4.13405 18.6581 4.55797 18.8337 5 18.8337H15C15.442 18.8337 15.8659 18.6581 16.1785 18.3455C16.4911 18.0329 16.6667 17.609 16.6667 17.167V7.16699L11.6667 2.16699Z" stroke="#4F4F4F" stroke-width="2" stroke-linecap="round" stroke-linejoin="round"/>
<path d="M11.6667 2.16699V7.16699H16.6667" stroke="#4F4F4F" stroke-width="2" stroke-linecap="round" stroke-linejoin="round"/>
<path d="M13.3333 11.333H6.66666" stroke="#4F4F4F" stroke-width="2" stroke-linecap="round" stroke-linejoin="round"/>
<path d="M13.3333 14.667H6.66666" stroke="#4F4F4F" stroke-width="2" stroke-linecap="round" stroke-linejoin="round"/>
<path d="M8.33333 8H7.5H6.66666" stroke="#4F4F4F" stroke-width="2" stroke-linecap="round" stroke-linejoin="round"/>
</svg>
