<svg width="100" height="100" viewBox="0 0 100 100" fill="none" xmlns="http://www.w3.org/2000/svg">
<rect width="100" height="100" rx="9" fill="#F3EC48"/>
<path d="M74.9131 27.918L70.3738 79.1245L49.9695 84.8206L29.6215 79.1324L25.0869 27.918H74.9131Z" fill="#E44D26"/>
<path d="M50 80.4667L66.4877 75.8639L70.3666 32.1055H50V80.4667Z" fill="#F16529"/>
<path d="M41.1758 44.668H50V38.3867H34.3588L34.508 40.0718L36.0412 57.3813H50V51.1H41.7459L41.1758 44.668ZM42.5816 60.522H36.3199L37.1937 70.3845L49.9713 73.9562L50 73.9483V67.4131L49.9726 67.4204L43.0258 65.5315L42.5816 60.522Z" fill="#EBEBEB"/>
<path d="M29.7227 14H32.8926V17.1537H35.7924V14H38.9625V23.5502H35.7926V20.3522H32.8928V23.5502H29.7229V14H29.7227ZM43.1309 17.1671H40.3406V14H49.0934V17.1671H46.3014V23.5502H43.1314V17.1671H43.1313H43.1309ZM50.4824 14H53.7877L55.8209 17.3557L57.8522 14H61.1588V23.5502H58.0018V18.8166L55.8209 22.2122H55.7662L53.584 18.8166V23.5502H50.4824V14ZM62.7363 14H65.9072V20.3935H70.365V23.5502H62.7361V14H62.7363Z" fill="black"/>
<path d="M49.9785 57.3813H57.6596L56.9354 65.5276L49.9783 67.4184V73.9532L62.766 70.3845L62.8598 69.3233L64.3258 52.7867L64.4779 51.1H49.9785V57.3813ZM49.9785 44.6526V44.668H65.0455L65.1705 43.2562L65.4549 40.0718L65.6039 38.3867H49.9785V44.6528V44.6526Z" fill="#F3EC48"/>
</svg>
