<svg width="45" height="45" viewBox="0 0 45 45" fill="none" xmlns="http://www.w3.org/2000/svg">
<rect x="0.5" y="0.5" width="44" height="44" rx="5.5" fill="white"/>
<path d="M17.3338 26.3496C17.1038 26.3496 16.9488 26.3721 16.8688 26.3946V27.8671C16.9638 27.8896 17.0825 27.8959 17.2463 27.8959C17.845 27.8959 18.2138 27.5934 18.2138 27.0821C18.2138 26.6246 17.8963 26.3496 17.3338 26.3496ZM21.6925 26.3646C21.4425 26.3646 21.28 26.3871 21.1838 26.4096V29.6721C21.28 29.6946 21.435 29.6946 21.575 29.6946C22.5963 29.7021 23.2613 29.1396 23.2613 27.9496C23.2688 26.9121 22.6625 26.3646 21.6925 26.3646Z" fill="#6D6D6D"/>
<path d="M24.5 10.5H14.5C13.837 10.5 13.2011 10.7634 12.7322 11.2322C12.2634 11.7011 12 12.337 12 13V33C12 33.663 12.2634 34.2989 12.7322 34.7678C13.2011 35.2366 13.837 35.5 14.5 35.5H29.5C30.163 35.5 30.7989 35.2366 31.2678 34.7678C31.7366 34.2989 32 33.663 32 33V18L24.5 10.5ZM18.8725 28.2375C18.4863 28.6 17.9162 28.7625 17.2525 28.7625C17.1238 28.7639 16.9952 28.7564 16.8675 28.74V30.5225H15.75V25.6025C16.2543 25.5273 16.7639 25.493 17.2737 25.5C17.97 25.5 18.465 25.6325 18.7987 25.8988C19.1163 26.1512 19.3312 26.565 19.3312 27.0525C19.33 27.5425 19.1675 27.9563 18.8725 28.2375ZM23.6313 29.9312C23.1063 30.3675 22.3075 30.575 21.3313 30.575C20.7463 30.575 20.3325 30.5375 20.0513 30.5V25.6038C20.5558 25.5301 21.0652 25.4954 21.575 25.5C22.5212 25.5 23.1363 25.67 23.6163 26.0325C24.135 26.4175 24.46 27.0312 24.46 27.9125C24.46 28.8663 24.1112 29.525 23.6313 29.9312ZM28.25 26.4625H26.335V27.6012H28.125V28.5188H26.335V30.5237H25.2025V25.5375H28.25V26.4625ZM24.5 19.25H23.25V13L29.5 19.25H24.5Z" fill="#6D6D6D"/>
<rect x="0.5" y="0.5" width="44" height="44" rx="5.5" stroke="#D4D4D4"/>
</svg>
