<svg width="54" height="54" viewBox="0 0 54 54" fill="none" xmlns="http://www.w3.org/2000/svg">
<rect width="54" height="54" rx="27" fill="#F6F6F6"/>
<path d="M32 18.0003C32.2626 17.7377 32.5744 17.5293 32.9176 17.3872C33.2608 17.245 33.6286 17.1719 34 17.1719C34.3714 17.1719 34.7392 17.245 35.0824 17.3872C35.4256 17.5293 35.7374 17.7377 36 18.0003C36.2626 18.2629 36.471 18.5747 36.6131 18.9179C36.7553 19.2611 36.8284 19.6289 36.8284 20.0003C36.8284 20.3717 36.7553 20.7395 36.6131 21.0827C36.471 21.4259 36.2626 21.7377 36 22.0003L22.5 35.5003L17 37.0003L18.5 31.5003L32 18.0003Z" stroke="#4F4F4F" stroke-width="2" stroke-linecap="round" stroke-linejoin="round"/>
</svg>
