<svg width="22" height="22" viewBox="0 0 22 22" fill="none" xmlns="http://www.w3.org/2000/svg">
<path d="M3.66668 2.75H18.3333C18.8196 2.75 19.2859 2.94315 19.6297 3.28697C19.9735 3.63079 20.1667 4.0971 20.1667 4.58333V10.0833C20.1667 12.5145 19.2009 14.8461 17.4818 16.5651C15.7627 18.2842 13.4312 19.25 11 19.25C9.79623 19.25 8.60423 19.0129 7.49208 18.5522C6.37993 18.0916 5.3694 17.4163 4.5182 16.5651C2.79911 14.8461 1.83334 12.5145 1.83334 10.0833V4.58333C1.83334 4.0971 2.0265 3.63079 2.37031 3.28697C2.71413 2.94315 3.18045 2.75 3.66668 2.75V2.75Z" stroke="#798BB4" stroke-width="2" stroke-linecap="round" stroke-linejoin="round"/>
<path d="M7.33334 9.16699L11 12.8337L14.6667 9.16699" stroke="#798BB4" stroke-width="2" stroke-linecap="round" stroke-linejoin="round"/>
</svg>
