<svg width="21" height="20" viewBox="0 0 21 20" fill="none" xmlns="http://www.w3.org/2000/svg">
<path d="M3 5H4.66667H18" stroke="#EB5757" stroke-width="2" stroke-linecap="round" stroke-linejoin="round"/>
<path d="M7.1665 4.99935V3.33268C7.1665 2.89065 7.3421 2.46673 7.65466 2.15417C7.96722 1.84161 8.39114 1.66602 8.83317 1.66602H12.1665C12.6085 1.66602 13.0325 1.84161 13.345 2.15417C13.6576 2.46673 13.8332 2.89065 13.8332 3.33268V4.99935M16.3332 4.99935V16.666C16.3332 17.108 16.1576 17.532 15.845 17.8445C15.5325 18.1571 15.1085 18.3327 14.6665 18.3327H6.33317C5.89114 18.3327 5.46722 18.1571 5.15466 17.8445C4.8421 17.532 4.6665 17.108 4.6665 16.666V4.99935H16.3332Z" stroke="#EB5757" stroke-width="2" stroke-linecap="round" stroke-linejoin="round"/>
<path d="M8.8335 9.16602V14.166" stroke="#EB5757" stroke-width="2" stroke-linecap="round" stroke-linejoin="round"/>
<path d="M12.1665 9.16602V14.166" stroke="#EB5757" stroke-width="2" stroke-linecap="round" stroke-linejoin="round"/>
</svg>
