<svg width="33" height="27" viewBox="0 0 33 27" fill="none" xmlns="http://www.w3.org/2000/svg">
<path d="M10.65 0.139893C11.6844 0.139893 12.6764 0.550785 13.4078 1.28218C14.1391 2.01357 14.55 3.00555 14.55 4.03989C14.55 4.76139 14.3355 5.42439 14.004 5.98989C14.004 5.98989 12.6 5.59989 10.65 5.59989C8.70004 5.59989 7.29604 5.98989 7.29604 5.98989C6.96454 5.42439 6.75004 4.76139 6.75004 4.03989C6.75004 3.00555 7.16093 2.01357 7.89232 1.28218C8.62371 0.550785 9.61569 0.139893 10.65 0.139893ZM22.35 0.139893C24.5145 0.139893 26.25 1.87539 26.25 4.03989C26.25 4.76139 26.0355 5.42439 25.704 5.98989C25.704 5.98989 24.3 5.59989 22.35 5.59989C20.4 5.59989 18.996 5.98989 18.996 5.98989C18.6645 5.42439 18.45 4.76139 18.45 4.03989C18.45 1.87539 20.1855 0.139893 22.35 0.139893ZM16.5 26.8549C20.0371 26.8577 23.4864 25.7536 26.3644 23.6974C29.2424 21.6412 31.4048 18.7359 32.5485 15.3889L29.9745 14.4919C28.005 20.2639 22.584 24.1249 16.5 24.1249C10.416 24.1249 4.99504 20.2639 3.02554 14.4919L0.451538 15.3889C1.59528 18.7359 3.75771 21.6412 6.6357 23.6974C9.5137 25.7536 12.963 26.8577 16.5 26.8549Z" fill="#FFC700"/>
</svg>
