<svg width="16" height="13" viewBox="0 0 16 13" fill="none" xmlns="http://www.w3.org/2000/svg">
<path d="M3.00005 2.5C3.00005 2.36739 3.05273 2.24021 3.14649 2.14645C3.24026 2.05268 3.36744 2 3.50005 2H12.501C12.6337 2 12.7608 2.05268 12.8546 2.14645C12.9484 2.24021 13.001 2.36739 13.001 2.5V4.5C13.001 4.63261 12.9484 4.75979 12.8546 4.85355C12.7608 4.94732 12.6337 5 12.501 5H3.50105C3.36844 5 3.24126 4.94732 3.14749 4.85355C3.05373 4.75979 3.00105 4.63261 3.00105 4.5V2.5H3.00005ZM4.00005 3V4H12.001V3H4.00105H4.00005ZM9.50005 6C9.36744 6 9.24026 6.05268 9.14649 6.14645C9.05272 6.24021 9.00005 6.36739 9.00005 6.5V9.505C9.00005 9.63761 9.05272 9.76478 9.14649 9.85855C9.24026 9.95232 9.36744 10.005 9.50005 10.005H12.5C12.6327 10.005 12.7598 9.95232 12.8536 9.85855C12.9474 9.76478 13 9.63761 13 9.505V6.5C13 6.36739 12.9474 6.24021 12.8536 6.14645C12.7598 6.05268 12.6327 6 12.5 6H9.50005ZM10 9.005V7H12V9.005H10ZM3.00005 7C3.00005 6.86739 3.05273 6.74021 3.14649 6.64645C3.24026 6.55268 3.36744 6.5 3.50005 6.5H7.50005C7.63266 6.5 7.75983 6.55268 7.8536 6.64645C7.94737 6.74021 8.00005 6.86739 8.00005 7C8.00005 7.13261 7.94737 7.25979 7.8536 7.35355C7.75983 7.44732 7.63266 7.5 7.50005 7.5H3.50005C3.36744 7.5 3.24026 7.44732 3.14649 7.35355C3.05273 7.25979 3.00005 7.13261 3.00005 7ZM3.50005 8.5C3.36744 8.5 3.24026 8.55268 3.14649 8.64645C3.05273 8.74021 3.00005 8.86739 3.00005 9C3.00005 9.13261 3.05273 9.25979 3.14649 9.35355C3.24026 9.44732 3.36744 9.5 3.50005 9.5H7.50005C7.63266 9.5 7.75983 9.44732 7.8536 9.35355C7.94737 9.25979 8.00005 9.13261 8.00005 9C8.00005 8.86739 7.94737 8.74021 7.8536 8.64645C7.75983 8.55268 7.63266 8.5 7.50005 8.5H3.50005ZM0.998047 2.5C0.998047 1.83696 1.26144 1.20107 1.73028 0.732233C2.19912 0.263392 2.83501 0 3.49805 0H12.503C13.1661 0 13.802 0.263392 14.2708 0.732233C14.7397 1.20107 15.003 1.83696 15.003 2.5V9.502C15.003 10.165 14.7397 10.8009 14.2708 11.2698C13.802 11.7386 13.1661 12.002 12.503 12.002H3.49805C2.83501 12.002 2.19912 11.7386 1.73028 11.2698C1.26144 10.8009 0.998047 10.165 0.998047 9.502V2.5ZM3.49805 1C3.10022 1 2.71869 1.15804 2.43739 1.43934C2.15608 1.72064 1.99805 2.10218 1.99805 2.5V9.502C1.99805 9.89982 2.15608 10.2814 2.43739 10.5627C2.71869 10.844 3.10022 11.002 3.49805 11.002H12.503C12.9009 11.002 13.2824 10.844 13.5637 10.5627C13.845 10.2814 14.003 9.89982 14.003 9.502V2.5C14.003 2.10218 13.845 1.72064 13.5637 1.43934C13.2824 1.15804 12.9009 1 12.503 1H3.49805Z" fill="#FFB800"/>
</svg>
