<svg width="24" height="17" viewBox="0 0 24 17" fill="none" xmlns="http://www.w3.org/2000/svg">
<path d="M16.5 11.4C16.2613 11.4 16.0324 11.4948 15.8636 11.6636C15.6948 11.8324 15.6 12.0613 15.6 12.3C15.6 12.5387 15.6948 12.7676 15.8636 12.9364C16.0324 13.1052 16.2613 13.2 16.5 13.2H19.5C19.7387 13.2 19.9676 13.1052 20.1364 12.9364C20.3052 12.7676 20.4 12.5387 20.4 12.3C20.4 12.0613 20.3052 11.8324 20.1364 11.6636C19.9676 11.4948 19.7387 11.4 19.5 11.4H16.5ZM2.75 0C2.02065 0 1.32118 0.289731 0.805456 0.805456C0.289731 1.32118 0 2.02065 0 2.75V14.25C0 14.9793 0.289731 15.6788 0.805456 16.1945C1.32118 16.7103 2.02065 17 2.75 17H21.25C21.9793 17 22.6788 16.7103 23.1945 16.1945C23.7103 15.6788 24 14.9793 24 14.25V2.75C24 2.02065 23.7103 1.32118 23.1945 0.805456C22.6788 0.289731 21.9793 0 21.25 0H2.75ZM1.5 14.25V6.5H22.5V14.25C22.5 14.94 21.94 15.5 21.25 15.5H2.75C2.06 15.5 1.5 14.94 1.5 14.25ZM1.5 5V2.75C1.5 2.06 2.06 1.5 2.75 1.5H21.25C21.94 1.5 22.5 2.06 22.5 2.75V5H1.5Z" fill="#42C157"/>
</svg>
